<?xml version="1.0" encoding="UTF-8" standalone="no"?>
<svg width="20" height="20" viewBox="0 0 20 20" xmlns="http://www.w3.org/2000/svg">
	<path fill="#343631" d="M17.5 18.9H2.5V19.9H17.5V18.9ZM2.5 18.9C1.67614 18.9 1 18.2239 1 17.4H0C0 18.7761 1.12386 19.9 2.5 19.9V18.9ZM1 17.4V7H0V17.4H1ZM1 7C1 6.17614 1.67614 5.5 2.5 5.5V4.5C1.12386 4.5 0 5.62386 0 7H1ZM2.5 5.5H17.5V4.5H2.5V5.5ZM17.5 5.5C18.3239 5.5 19 6.17614 19 7H20C20 5.62386 18.8761 4.5 17.5 4.5V5.5ZM19 7V17.5H20V7H19ZM19 17.5C19 18.2908 18.3581 18.9 17.5 18.9V19.9C18.8419 19.9 20 18.9092 20 17.5H19ZM6.5 9.5C7.32843 9.5 8 8.82843 8 8H7C7 8.27614 6.77614 8.5 6.5 8.5V9.5ZM8 8C8 7.17157 7.32843 6.5 6.5 6.5V7.5C6.77614 7.5 7 7.72386 7 8H8ZM6.5 6.5C5.67157 6.5 5 7.17157 5 8H6C6 7.72386 6.22386 7.5 6.5 7.5V6.5ZM5 8C5 8.82843 5.67157 9.5 6.5 9.5V8.5C6.22386 8.5 6 8.27614 6 8H5ZM13.5 9.5C14.3284 9.5 15 8.82843 15 8H14C14 8.27614 13.7761 8.5 13.5 8.5V9.5ZM15 8C15 7.17157 14.3284 6.5 13.5 6.5V7.5C13.7761 7.5 14 7.72386 14 8H15ZM13.5 6.5C12.6716 6.5 12 7.17157 12 8H13C13 7.72386 13.2239 7.5 13.5 7.5V6.5ZM12 8C12 8.82843 12.6716 9.5 13.5 9.5V8.5C13.2239 8.5 13 8.27614 13 8H12ZM14 8V4H13V8H14ZM14 4C14 1.82386 12.1761 0 10 0V1C11.6239 1 13 2.37614 13 4H14ZM10 0C7.82386 0 6 1.82386 6 4H7C7 2.37614 8.37614 1 10 1V0ZM6 4V8H7V4H6Z"/>
</svg>
