<?xml version="1.0" encoding="UTF-8" standalone="no"?>
<svg
   width="20"
   height="20"
   viewBox="0 0 20 20 "
   xml:space="preserve"
   version="1.1"
   id="svg4"
   sodipodi:docname="heart.svg"
   inkscape:version="1.1 (c68e22c387, 2021-05-23)"
   xmlns:inkscape="http://www.inkscape.org/namespaces/inkscape"
   xmlns:sodipodi="http://sodipodi.sourceforge.net/DTD/sodipodi-0.dtd"
   xmlns="http://www.w3.org/2000/svg"
   xmlns:svg="http://www.w3.org/2000/svg"><defs
   id="defs8" /><sodipodi:namedview
   id="namedview6"
   pagecolor="#ffffff"
   bordercolor="#666666"
   borderopacity="1.0"
   inkscape:pageshadow="2"
   inkscape:pageopacity="0.0"
   inkscape:pagecheckerboard="0"
   showgrid="false"
   inkscape:zoom="20.05"
   inkscape:cx="2.5685786"
   inkscape:cy="12.693267"
   inkscape:window-width="1920"
   inkscape:window-height="991"
   inkscape:window-x="-9"
   inkscape:window-y="-9"
   inkscape:window-maximized="1"
   inkscape:current-layer="svg4" />
<path
   d="m 0.65622725,5.4850156 c 0,4.6217034 8.65997785,13.8404814 9.02948195,14.2304114 0.080695,0.08619 0.1953696,0.135449 0.3142918,0.135449 0.11892,0 0.233594,-0.04925 0.31429,-0.135449 0.369504,-0.38993 9.029482,-9.608708 9.029482,-14.2304114 0,-2.9429493 -2.476101,-5.33589125 -5.521321,-5.33589125 -1.444037,0 -2.811625,0.52948399 -3.822451,1.46121305 C 8.9891735,0.67860836 7.621586,0.14912437 6.1775477,0.14912437 c -3.0452202,0 -5.52132045,2.39294193 -5.52132045,5.33589123 z M 6.1775477,0.97003032 c 1.3760832,0 2.6205039,0.53358918 3.5039149,1.50225818 0.1613922,0.1764956 0.4756834,0.1764956 0.6370754,0 0.883411,-0.968669 2.127832,-1.50225818 3.503914,-1.50225818 2.578032,0 4.671887,2.02353368 4.671887,4.51498528 0,3.8336318 -6.922887,11.6240324 -8.494338,13.3397274 C 8.4285481,17.109048 1.5056614,9.3186474 1.5056614,5.4850156 c 0,-2.4914516 2.0938548,-4.51498529 4.6718863,-4.51498528 z"
   id="path2"
   style="stroke-width:0.617594" />
</svg>
