<?xml version="1.0" encoding="UTF-8" standalone="no"?>
<svg
   version="1.1"
   x="0px"
   y="0px"
   viewBox="0 0 16 16"
   xml:space="preserve"
   id="svg10"
   sodipodi:docname="plus.svg"
   inkscape:version="1.1 (c68e22c387, 2021-05-23)"
   width="16"
   height="16"
   xmlns:inkscape="http://www.inkscape.org/namespaces/inkscape"
   xmlns:sodipodi="http://sodipodi.sourceforge.net/DTD/sodipodi-0.dtd"
   xmlns="http://www.w3.org/2000/svg"
   xmlns:svg="http://www.w3.org/2000/svg"><defs
     id="defs14" /><sodipodi:namedview
     id="namedview12"
     pagecolor="#ffffff"
     bordercolor="#666666"
     borderopacity="1.0"
     inkscape:pageshadow="2"
     inkscape:pageopacity="0.0"
     inkscape:pagecheckerboard="0"
     showgrid="false"
     inkscape:zoom="6.416"
     inkscape:cx="21.898379"
     inkscape:cy="14.728803"
     inkscape:window-width="1920"
     inkscape:window-height="991"
     inkscape:window-x="-9"
     inkscape:window-y="-9"
     inkscape:window-maximized="1"
     inkscape:current-layer="svg10" /><style
     type="text/css"
     id="style2">
</style><path
     class="st0"
     d="M 14.211052,9.5479258 H 9.5479261 v 4.6631262 c 0,0.851359 -0.6965662,1.547926 -1.5479256,1.547926 -0.8513595,0 -1.5479257,-0.696567 -1.5479257,-1.547926 V 9.5479258 H 1.7889484 c -0.8513595,0 -1.54792572,-0.6965664 -1.54792572,-1.5479259 0,-0.8513594 0.69656622,-1.5479257 1.54792572,-1.5479257 H 6.4520748 V 1.7889478 c 0,-0.85135947 0.6965662,-1.54792568 1.5479257,-1.54792568 0.8513594,0 1.5479256,0.69656621 1.5479256,1.54792568 v 4.6631264 h 4.6631259 c 0.851358,0 1.547925,0.6965663 1.547925,1.5479257 0,0.8513595 -0.696567,1.5479259 -1.547925,1.5479259 z"
     id="path4"
     style="stroke-width:0.193491" /></svg>
