<?xml version="1.0" encoding="UTF-8" standalone="no"?>
<svg
   viewBox="0 0 20 20"
   version="1.1"
   xml:space="preserve"
   x="0px"
   y="0px"
   fill-rule="evenodd"
   clip-rule="evenodd"
   stroke-linejoin="round"
   stroke-miterlimit="2"
   id="svg8"
   sodipodi:docname="star.svg"
   width="20"
   height="20"
   inkscape:version="1.1 (c68e22c387, 2021-05-23)"
   xmlns:inkscape="http://www.inkscape.org/namespaces/inkscape"
   xmlns:sodipodi="http://sodipodi.sourceforge.net/DTD/sodipodi-0.dtd"
   xmlns="http://www.w3.org/2000/svg"
   xmlns:svg="http://www.w3.org/2000/svg"><defs
     id="defs12" /><sodipodi:namedview
     id="namedview10"
     pagecolor="#ffffff"
     bordercolor="#666666"
     borderopacity="1.0"
     inkscape:pageshadow="2"
     inkscape:pageopacity="0.0"
     inkscape:pagecheckerboard="0"
     showgrid="false"
     inkscape:zoom="28.354982"
     inkscape:cx="14.794578"
     inkscape:cy="11.303128"
     inkscape:window-width="1920"
     inkscape:window-height="991"
     inkscape:window-x="-9"
     inkscape:window-y="-9"
     inkscape:window-maximized="1"
     inkscape:current-layer="svg8" /><path
     d="M 8.7007478,1.4645196 6.4846125,6.030252 c -0.014681,0.031363 -0.047379,0.049381 -0.082746,0.054052 0,0 -5.150963,0.6372806 -5.150963,0.6372806 C 0.69636926,6.7903167 0.23525835,7.1686818 0.06242513,7.6858468 -0.11307732,8.2116867 0.03639974,8.7902442 0.45079936,9.1692757 L 4.2317755,12.628609 c 0.019352,0.01735 0.030029,0.04204 0.025357,0.0674 0,0 -0.9675989,4.959444 -0.9675989,4.959444 -0.1061022,0.542524 0.1161118,1.097058 0.5752209,1.42137 0.4464302,0.315637 1.0403356,0.353007 1.5248025,0.09476 l 4.552387,-2.427675 c 0.036039,-0.01935 0.080078,-0.01935 0.115445,0 6.67e-4,0 4.553053,2.427672 4.553053,2.427672 0.484467,0.258249 1.078373,0.220879 1.524802,-0.09476 0.459109,-0.324312 0.681324,-0.878846 0.575221,-1.42137 l -0.967599,-4.959442 c -0.0046,-0.02536 0.006,-0.05005 0.02536,-0.0674 0.722029,-0.660636 2.553793,-2.336251 3.780975,-3.4593333 0.4144,-0.3790311 0.563877,-0.9575885 0.388374,-1.4834285 C 19.764741,7.1686822 19.30363,6.7903176 18.749096,6.7215847 L 13.598133,6.0843041 c -0.03537,-0.00467 -0.06807,-0.022689 -0.08275,-0.054052 0,0 -2.216136,-4.5657324 -2.216136,-4.5657324 C 11.061688,0.974714 10.557202,0.6577419 9.9999975,0.6577419 c -0.5572037,0 -1.0616895,0.3169721 -1.2992517,0.8067774 z M 9.901238,2.0470808 c 0.01735,-0.036034 0.057389,-0.05472 0.098757,-0.05472 0.04137,0 0.08141,0.018684 0.09876,0.05472 0,0 2.215467,4.5657325 2.215467,4.5657325 0.210203,0.4330839 0.631275,0.7353751 1.119746,0.795433 l 5.150963,0.6379481 c 0.0387,0.00467 0.07474,0.026692 0.08675,0.062727 0.0087,0.027359 -0.002,0.056054 -0.02336,0.075406 0,0 -3.780975,3.4599996 -3.780975,3.4599996 -0.365686,0.334323 -0.527842,0.827464 -0.434419,1.30726 l 0.967599,4.959445 c 0.006,0.02936 -0.01,0.05806 -0.03537,0.07541 -0.0367,0.02669 -0.08609,0.02869 -0.126789,0.0073 0,0 -4.553054,-2.427673 -4.553054,-2.427673 -0.427077,-0.227552 -0.9435758,-0.227552 -1.3706537,0 l -4.5530537,2.427673 c -0.040706,0.02135 -0.090087,0.01935 -0.1267888,-0.0073 -0.025357,-0.01735 -0.041373,-0.04604 -0.035367,-0.07541 0,0 0.9675989,-4.959445 0.9675989,-4.959445 0.093424,-0.479796 -0.068732,-0.972937 -0.4344185,-1.30726 0,0 -3.7809763,-3.4599996 -3.7809763,-3.4599996 -0.021354,-0.019351 -0.032031,-0.048046 -0.023356,-0.075406 0.012012,-0.036035 0.048046,-0.058056 0.08675,-0.062727 0,0 5.1509629,-0.6379481 5.1509629,-0.6379481 0.4884707,-0.060058 0.9095431,-0.3623491 1.1197456,-0.795433 z"
     id="path2"
     style="stroke-width:0.667309" /></svg>
