<?xml version="1.0" encoding="UTF-8" standalone="no"?>
<svg
   viewBox="0 0 20 20"
   width="20"
   height="20"
   xml:space="preserve"
   version="1.1"
   id="svg4"
   sodipodi:docname="user.svg"
   inkscape:version="1.1 (c68e22c387, 2021-05-23)"
   xmlns:inkscape="http://www.inkscape.org/namespaces/inkscape"
   xmlns:sodipodi="http://sodipodi.sourceforge.net/DTD/sodipodi-0.dtd"
   xmlns="http://www.w3.org/2000/svg"
   xmlns:svg="http://www.w3.org/2000/svg"><defs
   id="defs8" /><sodipodi:namedview
   id="namedview6"
   pagecolor="#ffffff"
   bordercolor="#666666"
   borderopacity="1.0"
   inkscape:pageshadow="2"
   inkscape:pageopacity="0.0"
   inkscape:pagecheckerboard="0"
   showgrid="false"
   inkscape:zoom="10.025"
   inkscape:cx="-19.600997"
   inkscape:cy="6.0349127"
   inkscape:window-width="1920"
   inkscape:window-height="991"
   inkscape:window-x="-9"
   inkscape:window-y="-9"
   inkscape:window-maximized="1"
   inkscape:current-layer="svg4" />
    <path
   d="m 10,0.23566092 c -2.4144544,0 -4.3939523,1.97949768 -4.3939523,4.39395298 0,2.4144544 1.9794979,4.3939524 4.3939523,4.3939524 2.414455,0 4.393953,-1.979498 4.393953,-4.3939524 0,-2.4144553 -1.979498,-4.39395297 -4.393953,-4.39395298 z m 0,0.97643388 c 1.881855,0 3.417519,1.5356644 3.417519,3.4175191 0,1.8818544 -1.535664,3.4175185 -3.417519,3.4175185 -1.8818538,0 -3.4175185,-1.5356641 -3.4175185,-3.4175185 C 6.5824815,2.7477592 8.1181462,1.2120948 10,1.2120948 Z M 3.6531799,12.929302 c -1.9088327,0 -3.41751887,1.508686 -3.41751887,3.417519 0,1.908833 1.50868617,3.417518 3.41751887,3.417518 H 16.346821 c 1.908833,0 3.417518,-1.508685 3.417518,-3.417518 0,-1.908833 -1.508685,-3.417519 -3.417518,-3.417519 z m 0,0.976434 H 16.346821 c 1.411042,0 2.441084,1.030042 2.441084,2.441085 0,1.411042 -1.030042,2.441084 -2.441084,2.441084 H 3.6531799 c -1.4110428,0 -2.4410849,-1.030042 -2.4410849,-2.441084 0,-1.411043 1.0300421,-2.441085 2.4410849,-2.441085 z"
   id="path2"
   style="stroke-width:0.629957" />
</svg>
